<svg xmlns:mydata="http://www.w3.org/2000/svg" mydata:contrastcolor="11111f" mydata:template="Contrast" mydata:presentation="2.5" mydata:layouttype="undefined" mydata:specialfontid="undefined" mydata:id1="857" mydata:id2="385" mydata:companyname="footyforecasts" mydata:companytagline="" version="1.1" xmlns="http://www.w3.org/2000/svg" xmlns:xlink="http://www.w3.org/1999/xlink" viewBox="0 35 550 400"><g fill="#ff8200" fill-rule="none" stroke="none" stroke-width="1" stroke-linecap="butt" stroke-linejoin="miter" stroke-miterlimit="10" stroke-dasharray="" stroke-dashoffset="0" font-family="none" font-weight="none" font-size="none" text-anchor="none" style="mix-blend-mode: normal"><g data-paper-data="{&quot;isGlobalGroup&quot;:true,&quot;bounds&quot;:{&quot;x&quot;:65,&quot;y&quot;:136.56065596708433,&quot;width&quot;:420,&quot;height&quot;:196.8786880658313}}"><g data-paper-data="{&quot;isPrimaryText&quot;:true}" fill-rule="nonzero"><path d="M87.84051,304.10023h-17.56962v5.73325h11.92885v5.27089h-11.92885v18.26316h-5.27089v-34.53818h22.84051z" data-paper-data="{&quot;glyphName&quot;:&quot;F&quot;,&quot;glyphIndex&quot;:0,&quot;firstGlyphOfWord&quot;:true,&quot;word&quot;:1}"></path><path d="M104.02306,298.73687c7.90633,0.09247 15.30407,6.14937 16.87609,13.96323c1.10966,5.64077 -0.83225,11.83638 -4.99347,15.8589c-4.76229,4.62359 -12.34497,6.14937 -18.67929,3.51392c-5.5483,-2.31179 -9.70953,-7.67515 -10.49554,-13.68581c-1.01719,-7.30527 3.23651,-15.02665 10.03318,-18.12445c2.26556,-1.01719 4.76229,-1.52578 7.25903,-1.52578zM103.79188,304.00776c-5.45583,0.09247 -10.58801,4.2537 -11.69767,9.61706c-1.43331,6.88914 4.16123,14.51806 11.79014,14.51806c5.36336,0 10.49554,-4.02252 11.74391,-9.29341c1.61825,-6.88914 -3.93005,-14.74924 -11.65144,-14.84171c-0.04624,0 -0.09247,0 -0.18494,0z" data-paper-data="{&quot;glyphName&quot;:&quot;O&quot;,&quot;glyphIndex&quot;:1,&quot;word&quot;:1}"></path><path d="M141.28916,298.73687c7.90633,0.09247 15.30407,6.14937 16.87609,13.96323c1.10966,5.64077 -0.83225,11.83638 -4.99347,15.8589c-4.76229,4.62359 -12.34497,6.14937 -18.67929,3.51392c-5.5483,-2.31179 -9.70953,-7.67515 -10.49554,-13.68581c-1.01719,-7.30527 3.23651,-15.02665 10.03318,-18.12445c2.26556,-1.01719 4.76229,-1.52578 7.25903,-1.52578zM141.05798,304.00776c-5.45583,0.09247 -10.58801,4.2537 -11.69767,9.61706c-1.43331,6.88914 4.16123,14.51806 11.79014,14.51806c5.36336,0 10.49554,-4.02252 11.74391,-9.29341c1.61825,-6.88914 -3.93005,-14.74924 -11.65144,-14.84171c-0.04624,0 -0.09247,0 -0.18494,0z" data-paper-data="{&quot;glyphName&quot;:&quot;O&quot;,&quot;glyphIndex&quot;:2,&quot;word&quot;:1}"></path><path d="M183.22508,303.31422h-10.21812v30.05331h-5.73325v-30.05331h-10.07942v-4.53111h26.03079z" data-paper-data="{&quot;glyphName&quot;:&quot;T&quot;,&quot;glyphIndex&quot;:3,&quot;word&quot;:1}"></path><path d="M197.37325,316.07532l-11.42026,-17.24597h5.73325l8.55363,12.8998l8.55363,-12.8998h5.73325l-11.42026,17.24597v17.29221h-5.73325z" data-paper-data="{&quot;glyphName&quot;:&quot;Y&quot;,&quot;glyphIndex&quot;:4,&quot;word&quot;:1}"></path><path d="M241.15861,304.10023h-17.56962v5.73325h11.92885v5.27089h-11.92885v18.26316h-5.27089v-34.53818h22.84051z" data-paper-data="{&quot;glyphName&quot;:&quot;F&quot;,&quot;glyphIndex&quot;:5,&quot;word&quot;:1}"></path><path d="M257.34115,298.73687c7.90633,0.09247 15.30407,6.14937 16.87609,13.96323c1.10966,5.64077 -0.83225,11.83638 -4.99347,15.8589c-4.76229,4.62359 -12.34497,6.14937 -18.67929,3.51392c-5.5483,-2.31179 -9.70953,-7.67515 -10.49554,-13.68581c-1.01719,-7.30527 3.23651,-15.02665 10.03318,-18.12445c2.26556,-1.01719 4.76229,-1.52578 7.25903,-1.52578zM257.10998,304.00776c-5.45583,0.09247 -10.58801,4.2537 -11.69767,9.61706c-1.43331,6.88914 4.16123,14.51806 11.79014,14.51806c5.36336,0 10.49554,-4.02252 11.74391,-9.29341c1.61825,-6.88914 -3.93005,-14.74924 -11.65144,-14.84171c-0.04624,0 -0.09247,0 -0.18494,0z" data-paper-data="{&quot;glyphName&quot;:&quot;O&quot;,&quot;glyphIndex&quot;:6,&quot;word&quot;:1}"></path><path d="M289.98367,298.82934c5.17842,0.04624 10.63425,1.71073 13.59334,5.77948c2.17309,3.00533 2.63544,7.12032 1.10966,10.4493c-1.43331,3.19027 -4.34617,5.31712 -7.72139,6.51926l7.21279,11.79014h-5.73325l-6.56549,-10.68048c-0.6473,0.04624 -9.47835,0.09247 -9.47835,0.09247v10.58801h-5.27089v-34.53818zM282.40099,317.55487c4.43864,0.18494 8.87728,0.50859 12.85357,-0.87848c3.42145,-1.20213 6.7042,-4.71606 4.29993,-8.55363c-1.84943,-3.00533 -5.82572,-4.02252 -9.70953,-4.02252h-7.44397z" data-paper-data="{&quot;glyphName&quot;:&quot;R&quot;,&quot;glyphIndex&quot;:7,&quot;word&quot;:1}"></path><path d="M331.22605,304.10023h-17.56962v5.73325h11.92885v5.27089h-11.92885v12.99228h17.56962v5.27089h-22.84051v-34.53818h22.84051z" data-paper-data="{&quot;glyphName&quot;:&quot;E&quot;,&quot;glyphIndex&quot;:8,&quot;word&quot;:1}"></path><path d="M361.4643,328.74394c-5.13218,4.48488 -13.13098,5.96443 -19.83518,3.37522c-5.96443,-2.31179 -10.40307,-7.72139 -11.28155,-13.68581c-1.01719,-7.3515 3.51392,-15.07289 10.77295,-18.12445c2.4505,-1.01719 5.08594,-1.57202 7.76762,-1.52578c5.17842,0.04624 10.17189,2.31179 13.63958,5.87195l-4.2537,2.72792c-2.17309,-2.31179 -5.36336,-3.88381 -9.43211,-3.93005c-0.04624,0 -0.09247,0 -0.18494,0c-6.98161,0.04624 -11.37402,4.80853 -12.52992,10.21812c-1.52578,6.88914 3.97628,14.93418 12.62239,14.93418c3.42145,0 6.42678,-1.2946 8.69234,-3.32898z" data-paper-data="{&quot;glyphName&quot;:&quot;C&quot;,&quot;glyphIndex&quot;:9,&quot;word&quot;:1}"></path><path d="M368.21473,333.36753h-5.73325l12.62239,-34.53818h5.77948l12.62239,34.53818h-5.73325l-2.77415,-7.58268h-14.00946zM372.93079,320.46772h10.12565l-5.03971,-13.77828z" data-paper-data="{&quot;glyphName&quot;:&quot;A&quot;,&quot;glyphIndex&quot;:10,&quot;word&quot;:1}"></path><path d="M418.51934,320.79138c-3.69887,-4.11499 -14.74924,-2.68168 -20.20507,-6.93538c-3.32898,-2.54297 -3.88381,-6.98161 -1.52578,-10.07942c1.10966,-1.52578 2.91286,-2.77415 4.99347,-3.56016c2.35803,-0.87848 5.03971,-1.2946 7.67515,-1.2946c5.50207,0.04624 11.09661,2.08061 14.0557,5.64077l-5.50207,2.63544c-1.94191,-2.31179 -4.66982,-3.7451 -9.38588,-3.7451c-3.6064,0 -6.38055,1.71073 -6.75043,3.97628c-0.69354,4.48488 11.97509,5.87195 12.52992,6.01066c3.79134,0.78601 7.58268,2.26556 9.66329,4.80853c2.26556,2.72792 2.21932,6.47302 0.50859,9.43211c-1.38708,2.31179 -4.16123,4.11499 -7.39774,4.99347c-2.68168,0.69354 -5.5483,0.83225 -8.32245,0.73977c-4.06876,-0.18494 -8.09127,-1.38708 -10.91166,-3.6064c-1.66449,-1.2946 -2.95909,-2.91286 -3.46769,-4.66982l6.38055,-1.06342c0.36989,1.38708 1.8032,2.54297 3.42145,3.32898c3.28275,1.47955 7.76762,1.38708 11.00413,0.50859c1.52578,-0.41612 2.86662,-1.24837 3.51392,-2.54297c0.09247,-0.23118 0.23118,-0.50859 0.27742,-0.78601c0.41612,-1.24837 0.41612,-2.63544 -0.55483,-3.79134z" data-paper-data="{&quot;glyphName&quot;:&quot;S&quot;,&quot;glyphIndex&quot;:11,&quot;word&quot;:1}"></path><path d="M452.41023,303.31422h-10.21812v30.05331h-5.73325v-30.05331h-10.07942v-4.53111h26.03079z" data-paper-data="{&quot;glyphName&quot;:&quot;T&quot;,&quot;glyphIndex&quot;:12,&quot;word&quot;:1}"></path><path d="M477.70124,320.79138c-3.69887,-4.11499 -14.74924,-2.68168 -20.20507,-6.93538c-3.32898,-2.54297 -3.88381,-6.98161 -1.52578,-10.07942c1.10966,-1.52578 2.91286,-2.77415 4.99347,-3.56016c2.35803,-0.87848 5.03971,-1.2946 7.67515,-1.2946c5.50207,0.04624 11.09661,2.08061 14.0557,5.64077l-5.50207,2.63544c-1.94191,-2.31179 -4.66982,-3.7451 -9.38588,-3.7451c-3.6064,0 -6.38055,1.71073 -6.75043,3.97628c-0.69354,4.48488 11.97509,5.87195 12.52992,6.01066c3.79134,0.78601 7.58268,2.26556 9.66329,4.80853c2.26556,2.72792 2.21932,6.47302 0.50859,9.43211c-1.38708,2.31179 -4.16123,4.11499 -7.39774,4.99347c-2.68168,0.69354 -5.5483,0.83225 -8.32245,0.73977c-4.06876,-0.18494 -8.09127,-1.38708 -10.91166,-3.6064c-1.66449,-1.2946 -2.95909,-2.91286 -3.46769,-4.66982l6.38055,-1.06342c0.36989,1.38708 1.8032,2.54297 3.42145,3.32898c3.28275,1.47955 7.76762,1.38708 11.00413,0.50859c1.52578,-0.41612 2.86662,-1.24837 3.51392,-2.54297c0.09247,-0.23118 0.23118,-0.50859 0.27742,-0.78601c0.41612,-1.24837 0.41612,-2.63544 -0.55483,-3.79134z" data-paper-data="{&quot;glyphName&quot;:&quot;S&quot;,&quot;glyphIndex&quot;:13,&quot;lastGlyphOfWord&quot;:true,&quot;word&quot;:1}"></path></g><g data-paper-data="{&quot;isIcon&quot;:&quot;true&quot;,&quot;iconType&quot;:&quot;icon&quot;,&quot;rawIconId&quot;:&quot;3592574&quot;,&quot;selectedEffects&quot;:{&quot;container&quot;:&quot;&quot;,&quot;transformation&quot;:&quot;&quot;,&quot;pattern&quot;:&quot;&quot;},&quot;isDetailed&quot;:false,&quot;fillRule&quot;:&quot;evenodd&quot;,&quot;bounds&quot;:{&quot;x&quot;:206.75180613464133,&quot;y&quot;:136.56065596708433,&quot;width&quot;:136.49638773071737,&quot;height&quot;:136.49638773071743},&quot;iconStyle&quot;:&quot;standalone&quot;,&quot;suitableAsStandaloneIcon&quot;:true}" fill-rule="evenodd"><g data-paper-data="{&quot;isPathIcon&quot;:true}"><path d="M307.92009,237.78694c11.92303,-5.36902 22.60306,-9.68703 32.30909,-12.84004c1.96801,-6.36202 3.01901,-13.12604 3.01901,-20.13806c0,-37.69711 -30.55109,-68.24819 -68.24819,-68.24819c-37.69711,0 -68.24819,30.55109 -68.24819,68.24819c0,37.69711 30.55109,68.24819 68.24819,68.24819c11.29203,0 21.93406,-2.75101 31.31509,-7.60402c-14.32904,0.707 -24.24607,-2.79001 -30.22609,-6.05702c0,0 15.30404,5.86602 39.47411,0.306c4.92901,-3.65001 9.32403,-7.93002 13.10704,-12.74404c-38.17111,19.52506 -76.17022,3.23201 -90.46526,-12.30003c0.361,0.371 24.33907,23.56107 69.7152,3.12901zM226.48886,196.84083c0,-25.20107 20.44406,-45.66413 45.64513,-45.66413c9.19003,0 17.75005,2.71301 24.91507,7.41302c-4.33701,-1.585 -9.03703,-2.44501 -13.94804,-2.44501c-22.48806,0 -40.71612,18.22705 -40.71612,40.71612c0,22.48806 18.22805,40.71512 40.71612,40.71512c4.91101,0 9.61103,-0.879 13.94804,-2.44501c-7.16502,4.70001 -15.72504,7.41302 -24.91507,7.41302c-25.20107,-0.038 -45.64513,-20.48206 -45.64513,-45.70313zM316.00212,195.38882c0,6.74502 -1.98701,13.03104 -5.44502,18.28505c1.166,-3.19101 1.79601,-6.63002 1.79601,-10.24103c0,-16.50805 -13.37404,-29.88208 -29.88208,-29.88208c-16.50805,0 -29.88308,13.37404 -29.88308,29.88208c0,3.59201 0.65,7.05002 1.79601,10.24103c-3.45801,-5.25401 -5.44502,-11.54003 -5.44502,-18.28505c0,-18.51405 14.99804,-33.5121 33.5321,-33.5121c18.51405,0 33.5311,15.01704 33.5311,33.5121z"></path></g></g></g></g><g class="watermark-group" style="opacity:0.040000010281801224"><path class="watermark-path" d="M129.52,370.3a11.88,11.88,0,0,1,2.58,5.58,12,12,0,0,1,.11,3,11.81,11.81,0,0,1-.64,2.93,12.34,12.34,0,0,1-1.41,2.72,11.65,11.65,0,0,1-2.13,2.32,12,12,0,0,1-2.64,1.69,13,13,0,0,1-2.91.9,12.47,12.47,0,0,1-3,.12,12.17,12.17,0,0,1-2.93-.64,11.8,11.8,0,0,1-2.72-1.38,12.19,12.19,0,0,1-4-4.79,11.85,11.85,0,0,1-.89-2.92,12.14,12.14,0,0,1-.13-3,11.54,11.54,0,0,1,.64-2.92,11.67,11.67,0,0,1,3.5-5,11.44,11.44,0,0,1,2.67-1.69,11.64,11.64,0,0,1,2.92-.91,10.71,10.71,0,0,1,3-.12,11.68,11.68,0,0,1,5.66,2,11.7,11.7,0,0,1,2.34,2.12m-1.4,8.76a13,13,0,0,1-1.22,2.32,9.68,9.68,0,0,1-1.81,2,7.44,7.44,0,0,1-2.38,1.37,6.17,6.17,0,0,1-5.11-.46,8.73,8.73,0,0,1-3.85-4.58,6.69,6.69,0,0,1-.34-2.66,6.09,6.09,0,0,1,.77-2.47,7.15,7.15,0,0,1,1.75-2.11,9.58,9.58,0,0,1,1.09-.81,8.23,8.23,0,0,1,1.12-.63,8.14,8.14,0,0,1,1.19-.46,12.71,12.71,0,0,1,1.32-.37l2,2.38a12.83,12.83,0,0,0-1.56.17,7.86,7.86,0,0,0-1.23.32,4.5,4.5,0,0,0-1,.49,6.41,6.41,0,0,0-.93.67,4.49,4.49,0,0,0-1.15,1.39,3.87,3.87,0,0,0-.45,1.58,4.12,4.12,0,0,0,.26,1.63,6.11,6.11,0,0,0,2.36,2.82,4.43,4.43,0,0,0,1.57.53,3.91,3.91,0,0,0,1.62-.17,4.71,4.71,0,0,0,1.57-.89,10.5,10.5,0,0,0,.83-.79,5.71,5.71,0,0,0,.65-.93,10.13,10.13,0,0,0,.54-1.14,12.24,12.24,0,0,0,.44-1.49l2,2.33m-14.46,4.55a8.86,8.86,0,0,0,2.78,2.22,9,9,0,0,0,3.29.94,9.15,9.15,0,0,0,3.39-.37,8.68,8.68,0,0,0,3.11-1.69,8.8,8.8,0,0,0,2.22-2.78,9.15,9.15,0,0,0,1-3.29,8.95,8.95,0,0,0-4.83-8.76,9,9,0,0,0-6.73-.57,9,9,0,0,0-5.33,4.47,8.94,8.94,0,0,0-.57,6.71,8.76,8.76,0,0,0,1.7,3.12"></path><path class="watermark-path" d="M147,349c-.48.12-1.09.31-1.82.57a24.37,24.37,0,0,0-2.4,1A28.35,28.35,0,0,0,140,352a20.72,20.72,0,0,0-2.71,1.94c-.7.59-1.28,1.11-1.74,1.57a15.07,15.07,0,0,0-1.1,1.22,4.09,4.09,0,0,0-.59.92,2.32,2.32,0,0,0-.22.64,1.16,1.16,0,0,0,0,.47,1.83,1.83,0,0,0,.18.29,1.15,1.15,0,0,0,1,.37,5.54,5.54,0,0,0,1.51-.38q.87-.35,1.95-.9l2.26-1.18q1.2-.65,2.49-1.29c.87-.44,1.73-.83,2.59-1.17a18.94,18.94,0,0,1,2.6-.81,9.27,9.27,0,0,1,2.46-.29,6.25,6.25,0,0,1,2.24.49,5.12,5.12,0,0,1,1.89,1.47,6.35,6.35,0,0,1,1.41,2.61,6,6,0,0,1,.09,2.6,8.3,8.3,0,0,1-.9,2.52,17.79,17.79,0,0,1-1.62,2.37,23.92,23.92,0,0,1-2,2.15c-.72.67-1.41,1.29-2.09,1.87a33.79,33.79,0,0,1-5.33,3.7,32.29,32.29,0,0,1-4.91,2.28l-3.61-4.3a21.38,21.38,0,0,0,5.39-1.87,27.2,27.2,0,0,0,5.4-3.56,21.59,21.59,0,0,0,2.38-2.27,8.67,8.67,0,0,0,1.18-1.7,2.32,2.32,0,0,0,.27-1.19,1.34,1.34,0,0,0-.28-.74,1.21,1.21,0,0,0-1-.42,4.32,4.32,0,0,0-1.55.34,15.77,15.77,0,0,0-2,.88c-.72.37-1.48.77-2.27,1.21l-2.45,1.3c-.85.45-1.7.85-2.56,1.21a22.37,22.37,0,0,1-2.54.86,10,10,0,0,1-2.43.32,5.76,5.76,0,0,1-2.2-.45,5,5,0,0,1-1.89-1.45,6.12,6.12,0,0,1-1.31-2.41,6,6,0,0,1-.1-2.41,8.28,8.28,0,0,1,.81-2.38,14.06,14.06,0,0,1,1.49-2.24,22.37,22.37,0,0,1,1.85-2.05q1-1,2-1.77c.7-.59,1.44-1.15,2.23-1.7s1.62-1.06,2.44-1.53,1.63-.91,2.43-1.3,1.58-.75,2.3-1L147,349"></path><path class="watermark-path" d="M186.76,337.57l-10.6-12.63,3.92,18.24-4.66,3.91-17.27-7,10.6,12.63-4.86,4.07-15.09-18,6.59-5.54,18.69,7.52-4.15-19.71,6.57-5.52,15.09,18-4.83,4.05"></path><path class="watermark-path" d="M208.84,313.24l-10,8.42,1.16,4.82L194.56,331l-5.68-25.89,5.42-4.55,24.51,10.09-5.42,4.55-4.55-2m-11.23,3.45,6.57-5.52-8.83-3.87,2.26,9.39"></path><path class="watermark-path" d="M227.49,281.38c-.48.12-1.09.31-1.82.57a24.37,24.37,0,0,0-2.4,1,26.11,26.11,0,0,0-2.7,1.47,20.72,20.72,0,0,0-2.71,1.94c-.7.59-1.28,1.11-1.74,1.57a13.39,13.39,0,0,0-1.1,1.22,4.29,4.29,0,0,0-.59.91,2.48,2.48,0,0,0-.22.65,1.16,1.16,0,0,0,0,.47,1.83,1.83,0,0,0,.18.29,1.15,1.15,0,0,0,1,.37,5.54,5.54,0,0,0,1.51-.38q.87-.34,2-.9l2.26-1.18q1.2-.64,2.49-1.29c.87-.44,1.73-.83,2.59-1.17a18.94,18.94,0,0,1,2.6-.81,9.27,9.27,0,0,1,2.46-.29,6.08,6.08,0,0,1,2.24.49,5.09,5.09,0,0,1,1.89,1.46,6.47,6.47,0,0,1,1.41,2.61,6.07,6.07,0,0,1,.09,2.61,8.3,8.3,0,0,1-.9,2.52,16.32,16.32,0,0,1-1.63,2.36,21.41,21.41,0,0,1-2,2.16c-.72.67-1.41,1.29-2.1,1.86a33.36,33.36,0,0,1-5.32,3.71,31.92,31.92,0,0,1-4.92,2.28l-3.6-4.3a21.38,21.38,0,0,0,5.39-1.87,27.2,27.2,0,0,0,5.4-3.56,21.59,21.59,0,0,0,2.38-2.27,8.67,8.67,0,0,0,1.18-1.7A2.32,2.32,0,0,0,231,293a1.34,1.34,0,0,0-.28-.74,1.21,1.21,0,0,0-1-.42,4.32,4.32,0,0,0-1.55.34,16.54,16.54,0,0,0-2,.88c-.71.37-1.47.77-2.26,1.21l-2.46,1.3c-.84.44-1.7.85-2.55,1.21a24.53,24.53,0,0,1-2.54.86A10,10,0,0,1,214,298a5.76,5.76,0,0,1-2.2-.45,5,5,0,0,1-1.89-1.45,6.12,6.12,0,0,1-1.31-2.41,5.78,5.78,0,0,1-.1-2.41,8,8,0,0,1,.81-2.38,14.61,14.61,0,0,1,1.49-2.25,22.26,22.26,0,0,1,1.85-2q1-1,2-1.77c.7-.59,1.44-1.15,2.23-1.7s1.62-1.06,2.44-1.53,1.63-.91,2.43-1.31,1.58-.74,2.3-1l3.5,4.16"></path><path class="watermark-path" d="M261.64,274.74l-6.29-7.5L243,277.61l6.3,7.5-4.86,4.07-15.09-18,4.85-4.08,5.49,6.55L252,263.3l-5.49-6.55,4.86-4.07,15.09,18-4.86,4.08"></path><path class="watermark-path" d="M272.18,265.9l-15.09-18,4.86-4.08,15.09,18-4.86,4.08"></path><path class="watermark-path" d="M299.65,242.85l-22.51-2.18L287.51,253l-4.85,4.08-15.1-18,5.28-4.43,22.56,2.22L285,224.5l4.83-4.06,15.09,18-5.26,4.42"></path><path class="watermark-path" d="M306.68,205.52a31.88,31.88,0,0,1,5.29-3.66,34.48,34.48,0,0,1,5.14-2.35l3.69,4.39a20.77,20.77,0,0,0-2.37.61,20.47,20.47,0,0,0-2.61,1,25.12,25.12,0,0,0-2.76,1.49,23.9,23.9,0,0,0-2.8,2,20.42,20.42,0,0,0-2.8,2.77,12.77,12.77,0,0,0-1.64,2.52,7,7,0,0,0-.68,2.24,6,6,0,0,0,.66,3.64,8.16,8.16,0,0,0,.94,1.38,9.12,9.12,0,0,0,1.08,1.07,6.39,6.39,0,0,0,1.47.91,6.73,6.73,0,0,0,1.88.48,6.54,6.54,0,0,0,2.28-.18,11.67,11.67,0,0,0,2.74-1.07,19.38,19.38,0,0,0,3.18-2.22c.57-.48,1.06-.92,1.46-1.31a14.57,14.57,0,0,0,1-1.13,11.46,11.46,0,0,0,.81-1.05l.74-1.09-1.82-2.17-5.45,4.57-3.31-3.94,10.31-8.65,7.71,9.19a29,29,0,0,1-1.67,2.43q-1,1.26-2.1,2.52c-.74.84-1.5,1.65-2.3,2.44s-1.58,1.5-2.33,2.14a31,31,0,0,1-3.59,2.61,22.55,22.55,0,0,1-3.64,1.83,15.64,15.64,0,0,1-3.63.89,10.72,10.72,0,0,1-3.49-.15,10.45,10.45,0,0,1-3.28-1.33,12.54,12.54,0,0,1-3-2.67,12,12,0,0,1-2.08-3.44,10.45,10.45,0,0,1-.71-3.5,11.14,11.14,0,0,1,.51-3.51,15.72,15.72,0,0,1,1.56-3.43,21.62,21.62,0,0,1,2.42-3.28,30.3,30.3,0,0,1,3.15-3"></path><path class="watermark-path" d="M336.91,211.59l-15.1-18,4.86-4.08,11.79,14,13.13-11,3.31,3.94-18,15.1"></path><path class="watermark-path" d="M374.54,164.71a12.28,12.28,0,0,1,2.59,4.81,10.44,10.44,0,0,1,0,5,14.62,14.62,0,0,1-2.33,5,25.55,25.55,0,0,1-4.56,4.85,26.07,26.07,0,0,1-5.6,3.67,14.79,14.79,0,0,1-5.38,1.43,10.43,10.43,0,0,1-4.94-.89,13.24,13.24,0,0,1-6.87-8.18,10.48,10.48,0,0,1,0-5,14.51,14.51,0,0,1,2.36-5,25.23,25.23,0,0,1,4.57-4.89,25,25,0,0,1,5.59-3.64,14.45,14.45,0,0,1,5.35-1.43,10.31,10.31,0,0,1,4.93.92,12.22,12.22,0,0,1,4.28,3.38m-4.91,4.11a8.36,8.36,0,0,0-2-1.72,5.5,5.5,0,0,0-2.65-.85,7.72,7.72,0,0,0-3.32.57,14.49,14.49,0,0,0-4,2.52,16.72,16.72,0,0,0-2.38,2.4,10.15,10.15,0,0,0-1.39,2.24,6.71,6.71,0,0,0-.56,2.1,5.69,5.69,0,0,0,.1,1.9,6.21,6.21,0,0,0,.61,1.69,9.85,9.85,0,0,0,1,1.44,10.48,10.48,0,0,0,1.26,1.23,6.67,6.67,0,0,0,1.57.92,6.1,6.1,0,0,0,1.85.41,6.8,6.8,0,0,0,2.15-.2,11.06,11.06,0,0,0,2.45-1,17.67,17.67,0,0,0,2.77-1.94,14.39,14.39,0,0,0,3.18-3.52,7.74,7.74,0,0,0,1.14-3.17,5.54,5.54,0,0,0-.37-2.74,8.52,8.52,0,0,0-1.36-2.3"></path><path class="watermark-path" d="M382.66,141.76A32.3,32.3,0,0,1,388,138.1a34.12,34.12,0,0,1,5.15-2.35l3.69,4.4a19.62,19.62,0,0,0-2.37.6,22.08,22.08,0,0,0-2.61,1,26,26,0,0,0-2.77,1.49,23.9,23.9,0,0,0-2.8,2,21,21,0,0,0-2.8,2.78,13.19,13.19,0,0,0-1.64,2.51,7.29,7.29,0,0,0-.68,2.24,6.36,6.36,0,0,0,.06,2,5.8,5.8,0,0,0,.61,1.68,8.12,8.12,0,0,0,.93,1.38,9.16,9.16,0,0,0,1.08,1.08,6.56,6.56,0,0,0,1.48.9,6,6,0,0,0,1.87.48,6.76,6.76,0,0,0,2.28-.17,12,12,0,0,0,2.74-1.08,18.57,18.57,0,0,0,3.18-2.22c.58-.48,1.06-.92,1.46-1.31s.75-.77,1.05-1.12.57-.72.81-1.06l.73-1.09-1.82-2.17-5.45,4.57-3.3-3.94,10.3-8.65,7.71,9.19a29,29,0,0,1-1.67,2.43q-1,1.26-2.1,2.52c-.73.84-1.5,1.66-2.3,2.44s-1.57,1.5-2.33,2.14a31,31,0,0,1-3.59,2.61,22.15,22.15,0,0,1-3.64,1.83,15.56,15.56,0,0,1-3.62.89,11,11,0,0,1-3.49-.14,10.84,10.84,0,0,1-3.28-1.33,12.82,12.82,0,0,1-3-2.68,12.12,12.12,0,0,1-2.08-3.43A10.71,10.71,0,0,1,375,155a11.18,11.18,0,0,1,.51-3.51,15.51,15.51,0,0,1,1.57-3.43,21.44,21.44,0,0,1,2.42-3.28,30.19,30.19,0,0,1,3.14-3"></path><path class="watermark-path" d="M428.63,119.31a12.26,12.26,0,0,1,2.59,4.82,10.44,10.44,0,0,1,0,5,14.53,14.53,0,0,1-2.34,5,25.29,25.29,0,0,1-4.56,4.86,26,26,0,0,1-5.59,3.67,14.84,14.84,0,0,1-5.38,1.43,10.61,10.61,0,0,1-4.95-.89,12.15,12.15,0,0,1-4.3-3.37,12,12,0,0,1-2.56-4.81,10.48,10.48,0,0,1,0-5,14.39,14.39,0,0,1,2.35-5,27.89,27.89,0,0,1,10.16-8.53,14.49,14.49,0,0,1,5.36-1.43,10.27,10.27,0,0,1,4.92.92,12.21,12.21,0,0,1,4.28,3.37m-4.91,4.12a8.17,8.17,0,0,0-2-1.72,5.58,5.58,0,0,0-2.65-.86,7.86,7.86,0,0,0-3.31.58,14.49,14.49,0,0,0-4,2.52,16.21,16.21,0,0,0-2.38,2.4,9.85,9.85,0,0,0-1.4,2.24,7,7,0,0,0-.56,2.1,6,6,0,0,0,.1,1.9,6.23,6.23,0,0,0,.62,1.69,8.49,8.49,0,0,0,1,1.44,9.18,9.18,0,0,0,1.26,1.23,6.67,6.67,0,0,0,1.57.92,6,6,0,0,0,1.84.41,6.86,6.86,0,0,0,2.16-.2,11.26,11.26,0,0,0,2.45-1,17.62,17.62,0,0,0,2.76-1.94,14.67,14.67,0,0,0,3.19-3.52,7.71,7.71,0,0,0,1.13-3.17,5.53,5.53,0,0,0-.36-2.74,8.55,8.55,0,0,0-1.37-2.3"></path></g></svg>