<svg class="svg-standalone-icon" width="100%" viewBox="206.75180613464133 136.56065596708433 136.49638773071737 136.49638773071743"><g data-paper-data="{&quot;isIcon&quot;:&quot;true&quot;,&quot;iconType&quot;:&quot;icon&quot;,&quot;rawIconId&quot;:&quot;3592574&quot;,&quot;selectedEffects&quot;:{&quot;container&quot;:&quot;&quot;,&quot;transformation&quot;:&quot;&quot;,&quot;pattern&quot;:&quot;&quot;},&quot;isDetailed&quot;:false,&quot;fillRule&quot;:&quot;evenodd&quot;,&quot;bounds&quot;:{&quot;x&quot;:206.75180613464133,&quot;y&quot;:136.56065596708433,&quot;width&quot;:136.49638773071737,&quot;height&quot;:136.49638773071743},&quot;iconStyle&quot;:&quot;standalone&quot;,&quot;suitableAsStandaloneIcon&quot;:true}" fill-rule="evenodd"><g data-paper-data="{&quot;isPathIcon&quot;:true}"><path d="M307.92009,237.78694c11.92303,-5.36902 22.60306,-9.68703 32.30909,-12.84004c1.96801,-6.36202 3.01901,-13.12604 3.01901,-20.13806c0,-37.69711 -30.55109,-68.24819 -68.24819,-68.24819c-37.69711,0 -68.24819,30.55109 -68.24819,68.24819c0,37.69711 30.55109,68.24819 68.24819,68.24819c11.29203,0 21.93406,-2.75101 31.31509,-7.60402c-14.32904,0.707 -24.24607,-2.79001 -30.22609,-6.05702c0,0 15.30404,5.86602 39.47411,0.306c4.92901,-3.65001 9.32403,-7.93002 13.10704,-12.74404c-38.17111,19.52506 -76.17022,3.23201 -90.46526,-12.30003c0.361,0.371 24.33907,23.56107 69.7152,3.12901zM226.48886,196.84083c0,-25.20107 20.44406,-45.66413 45.64513,-45.66413c9.19003,0 17.75005,2.71301 24.91507,7.41302c-4.33701,-1.585 -9.03703,-2.44501 -13.94804,-2.44501c-22.48806,0 -40.71612,18.22705 -40.71612,40.71612c0,22.48806 18.22805,40.71512 40.71612,40.71512c4.91101,0 9.61103,-0.879 13.94804,-2.44501c-7.16502,4.70001 -15.72504,7.41302 -24.91507,7.41302c-25.20107,-0.038 -45.64513,-20.48206 -45.64513,-45.70313zM316.00212,195.38882c0,6.74502 -1.98701,13.03104 -5.44502,18.28505c1.166,-3.19101 1.79601,-6.63002 1.79601,-10.24103c0,-16.50805 -13.37404,-29.88208 -29.88208,-29.88208c-16.50805,0 -29.88308,13.37404 -29.88308,29.88208c0,3.59201 0.65,7.05002 1.79601,10.24103c-3.45801,-5.25401 -5.44502,-11.54003 -5.44502,-18.28505c0,-18.51405 14.99804,-33.5121 33.5321,-33.5121c18.51405,0 33.5311,15.01704 33.5311,33.5121z">
</path></g></g>
</svg>